<svg id="Capa_1" data-name="Capa 1" xmlns="http://www.w3.org/2000/svg" viewBox="0 0 1134.88 233.51"><defs><style>.cls-1{fill:#fff;}</style></defs><path class="cls-1" d="M1056.31,53.42c-3.16-10.7-18.32-10.7-21.47,0l-.77,2.6a11.17,11.17,0,0,1-13.89,7.57,11,11,0,0,1-2.19-.91l-2.37-1.3c-9.8-5.33-20.52,5.39-15.18,15.19l1.29,2.37A11.19,11.19,0,0,1,995.06,95l-2.59.76c-10.7,3.16-10.7,18.32,0,21.47l2.59.77a11.19,11.19,0,0,1,7.58,13.89,11.37,11.37,0,0,1-.91,2.19l-1.3,2.37c-5.33,9.81,5.39,20.53,15.18,15.18l2.38-1.29a11.18,11.18,0,0,1,16.08,6.67l.77,2.59c3.15,10.7,18.31,10.7,21.47,0l.76-2.59a11.2,11.2,0,0,1,13.89-7.58,11.46,11.46,0,0,1,2.2.91l2.37,1.3c9.8,5.34,20.52-5.38,15.18-15.18l-1.29-2.38a11.17,11.17,0,0,1,4.47-15.17,10.77,10.77,0,0,1,2.19-.91l2.6-.77c10.7-3.15,10.7-18.31,0-21.47l-2.6-.76a11.19,11.19,0,0,1-6.66-16.09l1.3-2.36c5.33-9.81-5.39-20.53-15.19-15.19l-2.37,1.29A11.18,11.18,0,0,1,1058,58.21a11.37,11.37,0,0,1-.91-2.19Zm-10.74,75.5a22.39,22.39,0,1,1,22.37-22.39,22.4,22.4,0,0,1-22.37,22.39Z"/><path class="cls-1" d="M880.44,72.48l2.28-3.35H915c.16,2.3.43,4.37.43,6.45,0,26.16-.88,52.36.23,78.47,1.7,40.26-29.46,60.72-66.39,56-12.87-1.64-24.57-6-33.74-15.68-1.21-1.29-2.21-2.78-3.08-3.9l20-20.81c12.26,11.33,26,15.31,41,6.76,6.93-3.94,8.24-11.21,7.12-18.87-35,7.11-50.41,2.82-62.15-17.17-10.58-18-8.47-42.38,4.86-58C833.64,70.11,855.5,60.07,880.44,72.48Zm-15.7,60.07c10.73,0,17.88-7.11,17.92-17.78S875.53,96.7,865,96.61c-10.75-.1-18.33,7.43-18.28,18.15C846.78,125.26,854.18,132.57,864.74,132.55Z"/><path class="cls-1" d="M510.72,166.12H478.1c-.51-1.62-1-3.16-1.67-5.38-13.13,8.4-27.3,10.58-41,4.36a56.16,56.16,0,0,1-21-16.72c-13.28-17.72-12.13-46.33.95-63.82C428.7,66.72,445.5,63.7,476.57,73.69c.46-1.36.92-2.73,1.51-4.46h32.64Zm-70.45-48.48c0,11.9,7.6,19.83,19,19.85s19.19-8,19.3-19.72c.1-11.43-8-20.19-18.9-20.35C448.45,97.26,440.28,105.77,440.27,117.64Z"/><path class="cls-1" d="M184.19,66.48c31.37,0,54.35,21.47,54.36,50.86,0,29.58-22.78,51.18-54,51.19s-54.63-22-54.61-51.46C129.92,88.12,153.11,66.51,184.19,66.48Zm.51,30.85c-11.29-.17-19.4,8-19.7,20s7.7,20.44,19,20.61S203.48,130,203.8,118C204.11,106.4,195.87,97.51,184.7,97.33Z"/><path class="cls-1" d="M801.65,128.59H734.57C735.92,145.27,757.48,148,778,135l17.52,17.52c-8.63,9.7-19.76,13.88-32.31,15.7-30.68,4.46-58.17-13.43-62.82-42-3.32-20.4,3-37.89,20.36-49.78,18.81-12.84,39.19-13.88,59.09-3,18.51,10.16,24.85,27.31,23.31,47.77A63.47,63.47,0,0,1,801.65,128.59Zm-30.51-22.68c-2.21-10.59-9.86-15.75-20.54-14.6-8.74.94-16,7.54-16,14.6Z"/><path class="cls-1" d="M127.42,69.23l-56.59,138H36.41c5.51-12.21,10.16-23.92,16-35,3.94-7.46,3.89-13.7.62-21.47C41.82,124.13,31.41,97.13,20.38,69.48H57.06C62.33,87,67.66,104.68,73.79,125c6.17-20.28,11.55-38,17-55.79Z"/><path class="cls-1" d="M971.4,21.47V165.94H937.71V21.47Z"/><path class="cls-1" d="M567.69,166.05H533.44V69.36h33.21c.51,1.09,1.19,2.5,2,4.09,14.76-7.63,29.32-10.29,44.68.29l-19.62,26.37c-1.51-.62-2.71-1.1-3.89-1.61-11.93-5.17-21.93,1.07-22,14C567.59,130.12,567.69,147.76,567.69,166.05Z"/><path class="cls-1" d="M654,69.36c.51,1.15,1.08,2.47,1.91,4.34,10.74-6.61,22.23-8.8,34.35-5.44,3.35.93,6.37,3.1,10.5,5.18L681,100.12c-2.66-1-4.74-2.17-7-2.67-11.58-2.63-19,3.37-19.1,15.77-.18,15.32,0,30.64-.07,46,0,2.12-.22,4.25-.36,6.77h-33.6V69.36Z"/><path class="cls-1" d="M390.36,119.62c0,27.28-20.94,48.7-47.63,48.73-27.09,0-48.33-21.37-48.32-48.66,0-27,21.17-48.14,48.23-48.12C369.32,71.59,390.35,92.77,390.36,119.62Zm-10.6.11c0-22.37-15.43-38.54-36.95-38.72s-38.1,16.33-38.14,38.31c0,22.76,16.14,39.66,38,39.67C363.93,159,379.75,142.26,379.76,119.73Z"/><path class="cls-1" d="M268.34,166.06h-8.9V26.75h8.9Z"/></svg>